<?xml version="1.0" encoding="UTF-8"?>
<svg viewBox="0 0 465 241" xmlns="http://www.w3.org/2000/svg">
 <defs>
  <filter id="c">
   <feGaussianBlur stdDeviation="7.54925"/>
  </filter>
  <filter id="i" x="-.14409" y="-11.072" width="1.2882" height="23.144">
   <feGaussianBlur stdDeviation="8.93201"/>
  </filter>
  <filter id="h" x="-.12487" y="-2.7679" width="1.2497" height="6.5359">
   <feGaussianBlur stdDeviation="8.93201"/>
  </filter>
  <filter id="g" x="-.10855" y="-.97692" width="1.2171" height="2.9538">
   <feGaussianBlur stdDeviation="8.93201"/>
  </filter>
  <filter id="f" x="-.08517" y="-2.7679" width="1.1703" height="6.5359">
   <feGaussianBlur stdDeviation="8.93201"/>
  </filter>
  <filter id="e" x="-.07007" y="-2.3725" width="1.1402" height="5.745">
   <feGaussianBlur stdDeviation="8.93201"/>
  </filter>
  <filter id="d" x="-.22337" y="-.927" width="1.4468" height="2.854">
   <feGaussianBlur stdDeviation="29.91383"/>
  </filter>
  <linearGradient id="b" x1="174.26" x2="176.84" y1="144.4" y2="328.98" gradientTransform="matrix(1 0 0 .54054 -27.597 242.63)" gradientUnits="userSpaceOnUse">
   <stop stop-color="#0e232e" offset="0"/>
   <stop stop-color="#0e232e" stop-opacity="0" offset="1"/>
  </linearGradient>
  <radialGradient id="a" cx="300.75" cy="19.247" r="257.12" gradientTransform="matrix(-.00633 .55549 -.57323 -.00312 246.2 113.9)" gradientUnits="userSpaceOnUse">
   <stop stop-color="#f60" offset="0"/>
   <stop stop-color="#b50000" offset="1"/>
  </radialGradient>
 </defs>
 <g transform="translate(0,-239)">
  <path d="m66.51 258.41h322.94v203h-322.94z" fill="url(#a)" filter="url(#c)" opacity=".9561" stroke="#766a59" stroke-width=".94313"/>
  <path transform="matrix(1 0 0 .49323 -31.469 267.64)" d="m373.04 191.51a152.96 4.5177 0 1 1 -305.91 0 152.96 4.5177 0 1 1 305.91 0z" fill="#ff9634" filter="url(#e)" opacity=".9561" stroke="#766a59" stroke-width="1.4"/>
  <path transform="matrix(1 0 0 .49323 -31.469 267.64)" d="m450.48 233.46a125.85 3.8723 0 1 1 -251.7 0 125.85 3.8723 0 1 1 251.7 0z" fill="#ff9634" filter="url(#f)" opacity=".9561" stroke="#766a59" stroke-width="1.4"/>
  <path transform="matrix(1 0 0 .49323 -31.469 267.64)" d="m289.13 257.34a98.745 10.972 0 1 1 -197.49 0 98.745 10.972 0 1 1 197.49 0z" fill="#ff9634" filter="url(#g)" opacity=".9561" stroke="#766a59" stroke-width="1.4"/>
  <path transform="matrix(1 0 0 .49323 -279.3 197.93)" d="m525.35 221.84a85.837 3.8723 0 1 1 -171.67 0 85.837 3.8723 0 1 1 171.67 0z" fill="#ff9634" filter="url(#h)" opacity=".9561" stroke="#766a59" stroke-width="1.4"/>
  <path transform="matrix(1 0 0 .49323 -319.31 296.03)" d="m560.2 254.76a128.43 1.9362 0 0 1 -148.78 1.9117l20.346-1.9117z" fill="#ff9634" filter="url(#i)" opacity=".9561" stroke="#766a59" stroke-width="1.4"/>
  <path d="m71.793 310.91h321.4v77.447h-321.4z" fill="url(#b)" filter="url(#d)" opacity=".6"/>
  <path d="m75.666 370.29 312.37-2.5816" fill="none" stroke="#000"/>
  <path d="m293.81 349.64 2.5816 112.3 6.4539-2.5816z" stroke="#000"/>
  <path d="m304.13 344.47 2.5816 112.3 6.4539-2.5816z" stroke="#000"/>
  <path d="m280.9 363.84 34.851-21.943" fill="none" stroke="#000"/>
  <path d="m291.23 372.87 23.234-18.071" fill="none" stroke="#000"/>
  <path d="m183.74 337.25c-4.4838-0.0166-8.1422 4.1092-12.591 5.243-1.5998 0.40765-3.3813 0.22098-4.9616 0.6765-3.1795 0.91652-5.8015 2.8142-8.8096 4.059-5.574 2.3066-17.079 6.3068-17.079 6.3068s-7.1578 1.9855-12.157 3.1097c4.1281-0.33654 9.9503-0.62732 13.258-0.62732l11.297 0.67641-3.5813 1.3476 4.6815 0.45276-3.0342 0.9003h6.6156s-2.756 0.90395-5.2351 1.1292 7.4406 1.8792 11.29 2.0295c2.6004 0.10171 5.8888-0.2185 8.9762-0.61104l4.8016 3.5354-0.82702 1.3531 6.3355-0.22374-4.4082-2.4769-5.4683-2.2422c3.979-0.51806 8.013-2.5094 9.2325-2.5094 2.2036 0 8.3532-16.209 8.3532-16.209l7.4425-1.5767-8.5428-0.6764s-2.5648-3.3301-4.6815-3.6062c-0.30683-0.0403-0.60802-0.0592-0.9071-0.0599zm-55.598 19.395c-3.0923 0.25222-5.2381 0.52721-4.6483 0.72022 0.43885 0.14366 2.3094-0.19424 4.6483-0.72022z" stroke="#000" stroke-width=".19302"/>
 </g>
</svg>
